<?xml version="1.0" encoding="UTF-8"?>
<svg xmlns="http://www.w3.org/2000/svg" xmlns:xlink="http://www.w3.org/1999/xlink" viewBox="0 0 100 100" width="100px" height="100px">
<g id="surface64560341">
<path style=" stroke:none;fill-rule:nonzero;fill:rgb(100%,17.647059%,9.019608%);fill-opacity:1;" d="M 26 10 C 23.789062 10 22 11.789062 22 14 C 22 16.210938 23.789062 18 26 18 L 30 18 C 32.210938 18 34 16.210938 34 14 C 34 11.789062 32.210938 10 30 10 Z M 42 10 C 39.792969 10 38 11.792969 38 14 C 38 16.207031 39.792969 18 42 18 L 45.660156 18 C 47.941406 18 49.882812 19.699219 49.992188 21.785156 C 50.050781 22.898438 49.664062 23.953125 48.902344 24.753906 C 48.136719 25.558594 47.109375 26 46 26 L 28 26 C 25.792969 26 24 27.792969 24 30 C 24 32.207031 25.792969 34 28 34 L 31.660156 34 C 33.941406 34 35.882812 35.699219 35.992188 37.785156 C 36.050781 38.898438 35.664062 39.953125 34.902344 40.753906 C 34.136719 41.558594 33.109375 42 32 42 L 28 42 C 25.792969 42 24 43.792969 24 46 C 24 48.207031 25.792969 50 28 50 L 31.660156 50 C 33.941406 50 35.882812 51.699219 35.992188 53.785156 C 36.050781 54.898438 35.664062 55.953125 34.902344 56.753906 C 34.136719 57.558594 33.109375 58 32 58 L 28 58 C 25.792969 58 24 59.792969 24 62 C 24 64.207031 25.792969 66 28 66 L 41.660156 66 C 43.941406 66 45.882812 67.699219 45.992188 69.785156 C 46.050781 70.898438 45.664062 71.953125 44.902344 72.753906 C 44.136719 73.558594 43.109375 74 42 74 L 36 74 C 33.792969 74 32 75.792969 32 78 C 32 80.207031 33.792969 82 36 82 L 55 82 C 56.652344 82 58 83.347656 58 85 C 58 87.757812 60.242188 90 63 90 C 64.382812 90 65.761719 89.554688 66.890625 88.746094 C 85.195312 75.59375 102.484375 63.171875 99.71875 41.683594 C 97.398438 23.625 81.5625 10 62.886719 10 Z M 12 26 C 9.789062 26 8 27.789062 8 30 C 8 32.210938 9.789062 34 12 34 L 16 34 C 18.210938 34 20 32.210938 20 30 C 20 27.789062 18.210938 26 16 26 Z M 58 34 L 66 34 C 72.628906 34 78 39.371094 78 46 C 78 52.628906 72.628906 58 66 58 L 58 58 C 56.894531 58 56 57.105469 56 56 L 56 36 C 56 34.894531 56.894531 34 58 34 Z M 4 42 C 1.789062 42 0 43.789062 0 46 C 0 48.210938 1.789062 50 4 50 L 16 50 C 18.210938 50 20 48.210938 20 46 C 20 43.789062 18.210938 42 16 42 Z M 12 58 C 9.789062 58 8 59.789062 8 62 C 8 64.210938 9.789062 66 12 66 L 16 66 C 18.210938 66 20 64.210938 20 62 C 20 59.789062 18.210938 58 16 58 Z M 12 58 "/>
</g>
</svg>
